<?xml version="1.0" encoding="utf-8"?>
<!-- Generator: Adobe Illustrator 26.0.3, SVG Export Plug-In . SVG Version: 6.00 Build 0)  -->
<svg version="1.1" id="Layer_1" xmlns="http://www.w3.org/2000/svg" xmlns:xlink="http://www.w3.org/1999/xlink" x="0px" y="0px"
	 viewBox="0 0 1000 1000" style="enable-background:new 0 0 1000 1000;" xml:space="preserve">
<style type="text/css">
	.st0{fill-rule:evenodd;clip-rule:evenodd;fill:#FF2600;stroke:#FF2600;stroke-width:0.7087;stroke-linecap:round;}
</style>
<path class="st0" d="M613.5,616.5V490.2h-90.5c-1.3,0-2.2,0-3.4-0.9s-2.2-1.3-2.6-2.2c-0.9-0.9-1.3-1.3-1.3-2.2
	c-0.9-1.3-0.9-2.2-0.9-3.4V463h129.8v167.7c-12.1,8.2-24.1,15.1-36.7,22c-12.1,6-24.6,11.2-37.9,15.1c-0.9,0-2.2,0.9-2.6,0.9
	c-9.9,3.4-20.7,5.2-31,7.3c-5.2,0.9-9.9,2.2-15.1,2.6c-9.9,1.3-19.8,2.2-29.3,2.6c-8.6,0.9-16.8,0.9-25.4,0.9
	c-19.4,0-38.4-2.2-57.3-6c-12.1-2.6-24.1-6.5-35.8-11.2c-28-11.2-51.7-27.2-72.4-48.7c-16.8-18.1-30.6-38.4-40.5-61.2
	c-2.2-4.7-3.9-9.9-6-14.7c-11.2-29.8-16.8-62.5-16.8-99.2c0-19.4,1.3-38.4,5.2-57.8c2.6-13.8,6.5-28,11.2-41.4
	c11.2-29.8,26.7-54.3,47-75.9c20.3-21.6,46.1-36.2,75.5-47.9c19.8-8.2,40.5-12.5,61.7-15.1c12.1-1.3,24.1-2.2,35.8-2.2
	c18.1,0,34.5,1.3,50,3.4c9.9,1.3,19.8,3.9,29.8,6.5c3.9,1.3,8.6,2.6,12.5,3.9c13.4,4.7,25.4,10.8,36.7,18.1
	c11.2,7.3,22,15.1,32.8,24.1l-8.6,14.7c-0.9,1.3-1.3,2.2-2.2,2.6c-2.2,1.3-3.9,2.2-6,2.2s-3.9-0.9-5.2-1.3c-1.3-0.9-2.2-0.9-2.6-1.3
	c-2.2-1.3-4.7-2.6-7.3-4.7c-1.3-1.3-2.6-2.2-3.9-3.4c-2.6-2.2-5.2-3.9-8.2-5.2c-5.2-3.4-10.8-6.5-18.1-9.9
	c-8.6-3.9-18.5-8.2-29.8-11.2c-3.4-1.3-6.5-2.2-10.8-2.6c-7.3-2.2-13.8-3.4-21.1-3.9c-11.2-1.3-24.1-2.2-37.1-2.2
	c-30.6,0-58.6,4.7-83.2,14.7c-24.6,9.9-45.7,24.1-63,41.8c-13.8,14.7-25.4,31-33.2,50c-2.6,5.2-4.7,10.8-6.5,16.8
	c-9.5,25.9-13.8,56.1-13.8,88c0,33.2,4.7,63,13.8,89.7c5.2,15.1,12.5,29.3,21.1,42.7c5.2,8.6,12.1,16.8,19.4,24.6
	c17.2,18.5,37.9,32.8,61.7,41.8c24.1,9.5,50.4,14.7,79.8,14.7c8.2,0,15.1,0,23.3-0.9c7.3-0.9,13.8-1.3,21.1-2.2
	c8.2-0.9,16-2.6,24.1-3.9c4.7-0.9,8.6-2.2,13.4-3.4c11.2-3.4,22-7.3,32.8-12.1c9.9-4.7,20.7-9.9,29.8-15.1
	C613.1,617.4,613.5,616.5,613.5,616.5z"/>
<path class="st0" d="M617.4,710.1V484.1h-47.9c-0.9,0-2.2,0-2.6,0c-1.3,0-2.6-0.9-3.4-2.2c-1.3-0.9-2.2-2.6-2.2-3.9
	c0-0.9,0-1.3,0-2.2v-12.1l56.5-3.9l8.2-118.1c0-2.2,1.3-3.9,2.6-5.2l0,0c1.3-1.3,2.6-2.2,4.7-2.2c0.9,0,0.9,0,1.3,0h14.7v126.3
	h104.3V485H649.3v223.4c0,3.4,0,6.5,0.9,10.8c0.9,3.4,1.3,6.5,2.2,9.9c0,1.3,0.9,2.2,0.9,3.4c1.3,3.4,2.6,6,3.9,8.6
	c1.3,2.6,3.4,5.2,5.2,7.3c3.9,3.9,8.6,7.3,14.7,9.5c4.7,1.3,9.5,2.6,14.7,2.6c1.3,0,2.6,0,3.4,0c3.4,0,6.5,0,9.5-0.9
	c3.9-0.9,8.2-1.3,11.2-2.6c2.6-1.3,5.2-2.2,8.2-3.4c2.6-1.3,4.7-2.6,7.3-3.9c3.4-2.2,6-3.9,8.2-6c0.9-0.9,1.3-1.3,2.2-2.2
	s1.3-0.9,2.2-1.3c1.3-0.9,2.2-1.3,3.4-2.2c0.9,0,0.9,0,1.3,0s1.3,0,2.2,0.9c0.9,0,1.3,0.9,1.3,1.3c0.9,0.9,0.9,0.9,1.3,1.3l8.6,13.8
	c-6.5,7.3-13.8,12.5-22,17.2c-3.4,2.2-6.5,3.4-9.9,4.7c-13.4,5.2-26.7,8.6-40.5,8.6c-19.4,0-34.5-4.7-46.6-13.4
	c-2.2-1.3-3.9-3.4-6-5.2c-6-6-10.8-13.8-13.4-22C619.5,735.5,617.4,723.5,617.4,710.1z"/>
</svg>
