<?xml version="1.0" encoding="utf-8"?>
<!-- Generator: Adobe Illustrator 26.0.3, SVG Export Plug-In . SVG Version: 6.00 Build 0)  -->
<svg version="1.1" id="Layer_1" xmlns="http://www.w3.org/2000/svg" xmlns:xlink="http://www.w3.org/1999/xlink" x="0px" y="0px"
	 viewBox="0 0 95 95" style="enable-background:new 0 0 95 95;" xml:space="preserve">
<style type="text/css">
	.st0{fill-rule:evenodd;clip-rule:evenodd;fill:#FF2600;stroke:#FF2600;stroke-width:0.7087;stroke-linecap:round;}
</style>
<path class="st0" d="M64.7,66.2V47.2H51.1c-0.2,0-0.3,0-0.5-0.1c-0.2-0.1-0.3-0.2-0.4-0.3c-0.1-0.1-0.2-0.2-0.2-0.3
	c-0.1-0.2-0.1-0.3-0.1-0.5v-2.8h19.5v25.2c-1.8,1.2-3.6,2.3-5.5,3.3c-1.8,0.9-3.7,1.7-5.7,2.3c-0.1,0-0.3,0.1-0.4,0.1
	c-1.5,0.5-3.1,0.8-4.7,1.1c-0.8,0.1-1.5,0.3-2.3,0.4c-1.5,0.2-3,0.3-4.4,0.4c-1.3,0.1-2.5,0.1-3.8,0.1c-2.9,0-5.8-0.3-8.6-0.9
	c-1.8-0.4-3.6-1-5.4-1.7c-4.2-1.7-7.8-4.1-10.9-7.3c-2.5-2.7-4.6-5.8-6.1-9.2c-0.3-0.7-0.6-1.5-0.9-2.2c-1.7-4.5-2.5-9.4-2.5-14.9
	c0-2.9,0.2-5.8,0.8-8.7c0.4-2.1,1-4.2,1.7-6.2c1.7-4.5,4-8.2,7.1-11.4S24.6,8,29,6.3c3-1.2,6.1-1.9,9.3-2.3c1.8-0.2,3.6-0.3,5.4-0.3
	c2.7,0,5.2,0.2,7.5,0.5c1.5,0.2,3,0.6,4.5,1c0.6,0.2,1.3,0.4,1.9,0.6c2,0.7,3.8,1.6,5.5,2.7s3.3,2.3,4.9,3.6l-1.3,2.2
	c-0.1,0.2-0.2,0.3-0.3,0.4c-0.3,0.2-0.6,0.3-0.9,0.3c-0.3,0-0.6-0.1-0.8-0.2c-0.2-0.1-0.3-0.1-0.4-0.2c-0.3-0.2-0.7-0.4-1.1-0.7
	c-0.2-0.2-0.4-0.3-0.6-0.5c-0.4-0.3-0.8-0.6-1.2-0.8c-0.8-0.5-1.6-1-2.7-1.5c-1.3-0.6-2.8-1.2-4.5-1.7c-0.5-0.2-1-0.3-1.6-0.4
	c-1.1-0.3-2.1-0.5-3.2-0.6c-1.7-0.2-3.6-0.3-5.6-0.3c-4.6,0-8.8,0.7-12.5,2.2s-6.9,3.6-9.5,6.3c-2.1,2.2-3.8,4.7-5,7.5
	c-0.4,0.8-0.7,1.6-1,2.5c-1.4,3.9-2.1,8.4-2.1,13.2c0,5,0.7,9.5,2.1,13.5c0.8,2.3,1.9,4.4,3.2,6.4c0.8,1.3,1.8,2.5,2.9,3.7
	c2.6,2.8,5.7,4.9,9.3,6.3s7.6,2.2,12,2.2c1.2,0,2.3,0,3.5-0.1c1.1-0.1,2.1-0.2,3.2-0.3c1.2-0.1,2.4-0.4,3.6-0.6
	c0.7-0.1,1.3-0.3,2-0.5c1.7-0.5,3.3-1.1,4.9-1.8c1.5-0.7,3.1-1.5,4.5-2.3C64.6,66.3,64.7,66.2,64.7,66.2z"/>
<path class="st0" d="M64.3,80.3v-34h-7.2c-0.1,0-0.3,0-0.4,0c-0.2,0-0.4-0.1-0.5-0.3c-0.2-0.1-0.3-0.4-0.3-0.6c0-0.1,0-0.2,0-0.3
	v-1.8l8.5-0.6l1.2-17.8c0-0.3,0.2-0.6,0.4-0.8c0,0,0,0,0,0c0.2-0.2,0.4-0.3,0.7-0.3c0.1,0,0.1,0,0.2,0h2.2v19h15.7v3.6H69.1V80
	c0,0.5,0,1,0.1,1.6c0.1,0.5,0.2,1,0.3,1.5c0,0.2,0.1,0.3,0.1,0.5c0.2,0.5,0.4,0.9,0.6,1.3c0.2,0.4,0.5,0.8,0.8,1.1
	c0.6,0.6,1.3,1.1,2.2,1.4c0.7,0.2,1.4,0.4,2.2,0.4c0.2,0,0.4,0,0.5,0c0.5,0,1,0,1.4-0.1c0.6-0.1,1.2-0.2,1.7-0.4
	c0.4-0.2,0.8-0.3,1.2-0.5c0.4-0.2,0.7-0.4,1.1-0.6c0.5-0.3,0.9-0.6,1.2-0.9c0.1-0.1,0.2-0.2,0.3-0.3c0.1-0.1,0.2-0.1,0.3-0.2
	c0.2-0.1,0.3-0.2,0.5-0.3c0.1,0,0.1,0,0.2,0c0.1,0,0.2,0,0.3,0.1c0.1,0,0.2,0.1,0.2,0.2c0.1,0.1,0.1,0.1,0.2,0.2l1.3,2.1
	c-1,1.1-2.1,1.9-3.3,2.6c-0.5,0.3-1,0.5-1.5,0.7c-2,0.8-4,1.3-6.1,1.3c-2.9,0-5.2-0.7-7-2c-0.3-0.2-0.6-0.5-0.9-0.8
	c-0.9-0.9-1.6-2.1-2-3.3C64.6,84.1,64.3,82.3,64.3,80.3z"/>
</svg>
