<?xml version="1.0" encoding="utf-8"?>
<!-- Generator: Adobe Illustrator 26.0.3, SVG Export Plug-In . SVG Version: 6.00 Build 0)  -->
<svg version="1.1" id="Layer_1" xmlns="http://www.w3.org/2000/svg" xmlns:xlink="http://www.w3.org/1999/xlink" x="0px" y="0px"
	 viewBox="0 0 406.7 91.3" style="enable-background:new 0 0 406.7 91.3;" xml:space="preserve">
<style type="text/css">
	.st0{fill-rule:evenodd;clip-rule:evenodd;fill:#FF2600;stroke:#FF2600;stroke-width:0.7087;stroke-linecap:round;}
</style>
<g id="svgGroup">
	<path vector-effect="non-scaling-stroke" class="st0" d="M56.5,63.7V44.6H42.9c-0.2,0-0.3,0-0.5-0.1c-0.2-0.1-0.3-0.2-0.4-0.3
		c-0.1-0.1-0.2-0.2-0.2-0.3c-0.1-0.2-0.1-0.3-0.1-0.5v-2.8h19.6v25.2c-1.8,1.2-3.6,2.3-5.5,3.3c-1.8,0.9-3.7,1.7-5.7,2.3
		c-0.1,0-0.3,0.1-0.4,0.1c-1.5,0.5-3.1,0.8-4.7,1.1c-0.8,0.1-1.5,0.3-2.3,0.4c-1.5,0.2-3,0.3-4.4,0.4c-1.3,0.1-2.5,0.1-3.8,0.1
		c-2.9,0-5.8-0.3-8.6-0.9c-1.8-0.4-3.6-1-5.4-1.7c-4.2-1.7-7.8-4.1-10.9-7.3C7,61,4.9,57.9,3.4,54.5c-0.3-0.7-0.6-1.5-0.9-2.2
		C0.8,47.8,0,42.8,0,37.3c0-2.9,0.2-5.8,0.8-8.7c0.4-2.1,1-4.2,1.7-6.2c1.7-4.5,4-8.3,7.1-11.4s6.8-5.6,11.2-7.3
		c3-1.2,6.1-1.9,9.3-2.3c1.8-0.2,3.6-0.3,5.4-0.3c2.7,0,5.2,0.2,7.5,0.5c1.5,0.2,3,0.6,4.5,1c0.6,0.2,1.3,0.4,1.9,0.6
		c2,0.7,3.8,1.6,5.5,2.7s3.3,2.3,4.9,3.6l-1.3,2.2c-0.1,0.2-0.2,0.3-0.3,0.4c-0.3,0.2-0.6,0.3-0.9,0.3c-0.3,0-0.6-0.1-0.9-0.2
		c-0.2-0.1-0.3-0.1-0.4-0.2c-0.3-0.2-0.7-0.4-1.1-0.7c-0.2-0.2-0.4-0.3-0.6-0.5c-0.4-0.3-0.8-0.6-1.2-0.8c-0.8-0.5-1.6-1-2.7-1.5
		C49,8.1,47.5,7.5,45.8,7c-0.5-0.2-1-0.3-1.6-0.4c-1.1-0.3-2.1-0.5-3.2-0.6c-1.7-0.2-3.6-0.3-5.6-0.3c-4.6,0-8.7,0.7-12.4,2.2
		s-6.9,3.6-9.5,6.3c-2.1,2.2-3.8,4.7-5,7.5c-0.4,0.8-0.7,1.6-1,2.5C6,28,5.2,32.5,5.2,37.3c0,5,0.7,9.5,2.2,13.5
		c0.8,2.3,1.9,4.4,3.2,6.4c0.8,1.3,1.8,2.5,2.9,3.7c2.6,2.8,5.7,4.9,9.3,6.3s7.6,2.2,12,2.2c1.2,0,2.3,0,3.5-0.1
		c1.1-0.1,2.1-0.2,3.2-0.3c1.2-0.1,2.4-0.4,3.6-0.6c0.7-0.1,1.3-0.3,2-0.5c1.7-0.5,3.3-1.1,4.9-1.8c1.5-0.7,3.1-1.5,4.5-2.3
		C56.4,63.7,56.5,63.7,56.5,63.7z M199.4,72.8h-4.8V0h4.8v31.5c1.7-2.1,3.7-3.9,5.9-5.5c0.7-0.5,1.3-0.9,2-1.3
		c2.7-1.5,5.7-2.4,8.7-2.5c0.4,0,0.8,0,1.2,0c1.2,0,2.4,0.1,3.6,0.3c1.2,0.2,2.4,0.5,3.6,1c1.6,0.6,3,1.6,4.2,2.7
		c0.3,0.3,0.7,0.7,0.9,1c1,1.2,1.8,2.6,2.4,4c0.3,0.6,0.5,1.2,0.7,1.9c0.4,1.4,0.7,2.7,0.8,4.1c0.1,1.2,0.2,2.4,0.2,3.7v31.8h-4.8
		V41c0-1.5-0.1-2.9-0.4-4.4c-0.3-1.6-0.7-3-1.3-4.2c-0.4-0.8-0.9-1.6-1.5-2.4c-2.1-2.7-5.4-4-9.8-4c-3.3,0-6.3,0.8-9.1,2.5
		c-2.1,1.3-4,2.9-5.7,4.7c-0.6,0.7-1.2,1.4-1.8,2.2V72.8z M354,25.2h12.8v1.6c0,0.8-0.5,1.3-1.4,1.4l-7.5,0.5
		c0.9,1.3,1.6,2.7,2.1,4.3c0.5,1.6,0.8,3.3,0.8,5.1c0,1.3-0.1,2.6-0.4,3.9c-0.2,0.9-0.5,1.8-0.9,2.6c-0.9,2-2.1,3.6-3.6,5
		c-1.3,1.1-2.7,2-4.2,2.7c-0.5,0.2-0.9,0.4-1.4,0.5c-1.5,0.5-3,0.9-4.6,1c-0.9,0.1-1.8,0.1-2.6,0.1c-1.5,0-3-0.1-4.5-0.4
		c-1.1-0.2-2.2-0.5-3.3-0.9c-1.4,0.8-2.5,1.8-3.3,2.8c-0.3,0.4-0.5,0.8-0.7,1.2c-0.2,0.5-0.4,1-0.4,1.4c0,0.2,0,0.4,0,0.6
		c0,0.5,0.1,0.9,0.2,1.4c0.2,0.8,0.7,1.4,1.3,1.9c0.9,0.7,2,1.2,3.3,1.5c0.2,0.1,0.4,0.1,0.6,0.2c0.8,0.2,1.7,0.3,2.6,0.4
		c1,0.1,2,0.2,3.1,0.3c2.1,0.1,4.3,0.2,6.5,0.3c2.2,0.1,4.3,0.3,6.4,0.6c1.1,0.1,2.1,0.4,3.2,0.7c0.8,0.2,1.7,0.5,2.5,0.9
		c1,0.5,2,1.1,2.8,1.9c0.4,0.4,0.8,0.8,1.2,1.3c0.5,0.7,0.9,1.6,1.1,2.4c0.2,0.7,0.3,1.4,0.3,2.1c0,0.3,0,0.5,0,0.8
		c0,2.1-0.5,4.1-1.5,6c-0.8,1.4-1.8,2.7-2.9,3.8c-0.5,0.5-1,0.9-1.5,1.3c-1.2,0.9-2.5,1.7-3.8,2.3c-1,0.5-2.1,0.9-3.2,1.2
		c-2.8,0.9-5.9,1.3-9.3,1.3c-1.5,0-2.9-0.1-4.3-0.2c-1.4-0.1-2.8-0.4-4-0.7c-0.3-0.1-0.6-0.1-0.8-0.2c-1.1-0.3-2.2-0.7-3.2-1.1
		c-1.1-0.5-2.1-1-3-1.6c-0.1-0.1-0.3-0.2-0.4-0.3c-0.8-0.6-1.6-1.2-2.3-1.9c-0.7-0.7-1.2-1.5-1.7-2.3c-0.9-1.6-1.3-3.3-1.3-5.1
		c0-2.6,0.9-4.9,2.6-6.8c1-1.1,2.2-2,3.5-2.8c1-0.6,2.1-1.1,3.4-1.5c0.1,0,0.2-0.1,0.2-0.1c-0.7-0.2-1.4-0.5-2-0.9
		c-0.7-0.4-1.4-0.9-2-1.6c-0.6-0.6-1-1.4-1.2-2.2c-0.2-0.5-0.2-1.1-0.3-1.8c0-0.2,0-0.3,0-0.5c0-0.5,0.1-0.9,0.2-1.4
		c0.1-0.3,0.1-0.6,0.2-0.8c0.2-0.5,0.4-1.1,0.7-1.6c0.1-0.2,0.3-0.5,0.5-0.7c0.5-0.8,1.2-1.5,1.9-2.1c0.8-0.7,1.6-1.3,2.6-1.8
		c-2.4-1.4-4.2-3.2-5.5-5.5c-0.9-1.6-1.5-3.4-1.8-5.2c-0.1-0.9-0.2-1.8-0.2-2.7c0-1.3,0.1-2.6,0.4-3.9c0.2-0.9,0.5-1.8,0.8-2.6
		c0.9-2,2.1-3.6,3.6-5c1.2-1.1,2.6-2,4-2.6c0.5-0.2,1-0.4,1.6-0.6c1.5-0.5,3.1-0.9,4.6-1c0.9-0.1,1.8-0.1,2.7-0.1
		c2.2,0,4.2,0.3,6,0.8c1.3,0.4,2.5,0.8,3.6,1.4C353.1,24.6,353.5,24.9,354,25.2z M277.2,72.8h-4.8V23h2.6c0.9,0,1.4,0.4,1.5,1.2
		l0.5,7.5c2.3-2.9,4.9-5.2,7.9-6.9c3-1.7,6.4-2.6,10.1-2.6c1.2,0,2.4,0.1,3.6,0.3c1.2,0.2,2.4,0.5,3.6,1c1.6,0.6,3,1.6,4.2,2.7
		c0.3,0.3,0.7,0.7,0.9,1c1,1.2,1.8,2.6,2.4,4c0.3,0.6,0.5,1.2,0.7,1.9c0.4,1.4,0.7,2.7,0.8,4.1c0.1,1.2,0.2,2.4,0.2,3.7v31.8h-4.8
		V41c0-1.5-0.1-2.9-0.4-4.4c-0.3-1.6-0.7-3-1.3-4.2c-0.4-0.8-0.9-1.6-1.5-2.4c-2.1-2.7-5.4-4-9.8-4c-3.3,0-6.3,0.8-9.1,2.5
		c-2.1,1.3-4,2.9-5.7,4.7c-0.6,0.7-1.2,1.4-1.8,2.2V72.8z M129.8,2h54.9v4.3h-24.9v66.4h-5.1V6.3h-25V2z M405.5,27.5l-1.1,1.6
		c-0.2,0.4-0.6,0.7-1,0.7c0,0-0.1,0-0.1,0c-0.3,0-0.7-0.1-1.2-0.4c-0.1-0.1-0.2-0.1-0.3-0.2c-0.4-0.3-0.9-0.6-1.4-0.9
		c-0.3-0.2-0.6-0.3-0.9-0.5c-0.8-0.4-1.8-0.9-2.9-1.2c-0.2-0.1-0.4-0.1-0.6-0.2c-0.6-0.2-1.2-0.3-1.8-0.4c-0.6-0.1-1.3-0.2-1.9-0.2
		c-0.4,0-0.9,0-1.3,0c-1,0-1.9,0.1-2.9,0.2c-0.7,0.1-1.4,0.3-2,0.5c-0.8,0.3-1.5,0.6-2.3,1c-0.5,0.3-1.1,0.7-1.5,1.1
		c-0.9,0.8-1.7,1.7-2.3,2.7c-0.1,0.1-0.1,0.2-0.2,0.3c-0.6,1.2-0.9,2.4-0.9,3.6c0,0.6,0.1,1.2,0.2,1.8c0.2,0.8,0.5,1.5,1,2.1
		c0.6,0.7,1.2,1.4,2,1.9c0.4,0.3,0.7,0.5,1.1,0.7c0.8,0.5,1.7,0.9,2.6,1.2c0.6,0.2,1.2,0.5,1.9,0.7c1.6,0.5,3.3,1.1,5.1,1.6
		s3.4,1.1,5.1,1.8s3.1,1.5,4.4,2.4c1.3,1,2.4,2.2,3.2,3.5c0.5,0.8,0.8,1.7,1,2.6c0.1,0.7,0.2,1.5,0.2,2.4c0,0,0,0.1,0,0.1
		c0,1.6-0.2,3.2-0.7,4.8c-0.1,0.4-0.3,0.8-0.5,1.3c-0.8,1.9-1.9,3.5-3.4,4.8c-1,1-2.2,1.8-3.5,2.4c-0.6,0.3-1.3,0.6-2,0.9
		c-2.2,0.8-4.6,1.2-7.4,1.2c-1.4,0-2.8-0.1-4.2-0.3c-1.8-0.3-3.4-0.7-4.8-1.4c-2.5-1.1-4.8-2.6-6.8-4.4l1.1-1.7
		c0.1-0.1,0.1-0.2,0.2-0.3c0.1-0.1,0.2-0.2,0.3-0.3c0.2-0.1,0.5-0.2,0.9-0.2c0.2,0,0.3,0,0.5,0.1c0.3,0.1,0.6,0.3,0.9,0.5
		c0.1,0.1,0.2,0.1,0.3,0.2c0.3,0.2,0.5,0.4,0.8,0.6c0.5,0.4,1,0.7,1.7,1.1c0.5,0.3,1,0.5,1.4,0.8c0.5,0.2,1.1,0.5,1.6,0.7
		c0.2,0.1,0.5,0.2,0.7,0.3c0.7,0.2,1.4,0.4,2.1,0.5c0.7,0.1,1.5,0.2,2.3,0.2c0.4,0,0.8,0,1.2,0c0.9,0,1.9-0.1,2.8-0.2
		c0.9-0.1,1.9-0.4,2.8-0.7c1.6-0.6,2.9-1.4,4-2.4s1.9-2.2,2.4-3.5c0.6-1.4,0.8-2.8,0.8-4.3c0-0.6-0.1-1.3-0.2-1.9
		c-0.2-0.8-0.5-1.6-1-2.3c-0.8-1.1-1.9-2-3.1-2.8c-0.8-0.5-1.7-0.9-2.6-1.3c-0.6-0.2-1.2-0.5-1.8-0.6c-1.7-0.5-3.4-1.1-5.1-1.6
		c0,0,0,0,0,0c-1.7-0.5-3.5-1.1-5.1-1.8c-1.2-0.4-2.3-1-3.4-1.7c-0.4-0.2-0.7-0.5-1.1-0.7c-1.3-1-2.4-2.1-3.1-3.5
		c-0.7-1.3-1.1-2.8-1.2-4.6c0-0.2,0-0.4,0-0.6c0-1.8,0.4-3.5,1.1-5.1c0.8-1.6,1.9-3.1,3.3-4.3c1-0.8,2-1.5,3.2-2.1
		c0.6-0.3,1.3-0.6,2-0.8c1.3-0.5,2.7-0.8,4.1-0.9c0.9-0.1,1.9-0.2,2.8-0.2c1.4,0,2.8,0.1,4.2,0.3c1.3,0.2,2.6,0.5,3.9,1
		c2.2,0.8,4.3,2.1,6.1,3.7C405.2,27.3,405.3,27.4,405.5,27.5z M103.4,62.1v-34h-7.2c-0.1,0-0.3,0-0.4,0c-0.2,0-0.4-0.1-0.5-0.3
		c-0.2-0.1-0.3-0.4-0.3-0.6c0-0.1,0-0.2,0-0.3v-1.9l8.5-0.6l1.2-17.8c0-0.3,0.2-0.6,0.4-0.8c0,0,0,0,0,0c0.2-0.2,0.4-0.3,0.7-0.3
		c0.1,0,0.1,0,0.2,0h2.2v19h15.7v3.6h-15.7v33.8c0,0.5,0,1,0.1,1.6c0.1,0.5,0.2,1,0.3,1.5c0,0.2,0.1,0.3,0.1,0.5
		c0.2,0.5,0.4,0.9,0.6,1.3c0.2,0.4,0.5,0.8,0.8,1.1c0.6,0.6,1.3,1.1,2.2,1.4c0.7,0.2,1.4,0.4,2.2,0.4c0.2,0,0.4,0,0.5,0
		c0.5,0,1,0,1.4-0.1c0.6-0.1,1.2-0.2,1.7-0.4c0.4-0.2,0.8-0.3,1.2-0.5c0.4-0.2,0.7-0.4,1.1-0.6c0.5-0.3,0.9-0.6,1.2-0.9
		c0.1-0.1,0.2-0.2,0.3-0.3c0.1-0.1,0.2-0.1,0.3-0.2c0.2-0.1,0.3-0.2,0.5-0.3c0.1,0,0.1,0,0.2,0c0.1,0,0.2,0,0.3,0.1
		c0.1,0,0.2,0.1,0.2,0.2c0.1,0.1,0.1,0.1,0.2,0.2l1.3,2.1c-1,1.1-2.1,1.9-3.3,2.6c-0.5,0.3-1,0.5-1.5,0.7c-2,0.8-4,1.3-6.1,1.3
		c-2.9,0-5.2-0.7-7-2c-0.3-0.2-0.6-0.5-0.9-0.8c-0.9-0.9-1.6-2.1-2-3.3C103.7,66,103.4,64.2,103.4,62.1z M78.2,23h4.8v49.8h-4.8V23z
		 M250.1,23h4.8v49.8h-4.8V23z M361.4,76.1c0-0.5-0.1-1.1-0.2-1.6c-0.2-0.8-0.5-1.4-0.9-2c0-0.1-0.1-0.1-0.1-0.2
		c-0.6-0.6-1.2-1.2-2-1.6c-0.4-0.2-0.9-0.4-1.3-0.6c-1.4-0.5-2.9-0.9-4.7-1.1c-1.4-0.2-2.8-0.3-4.2-0.4c-0.5,0-1-0.1-1.4-0.1
		c-2-0.1-3.9-0.2-5.9-0.3c-1.2-0.1-2.4-0.2-3.5-0.3c-0.7-0.1-1.3-0.2-2-0.3c-1,0.4-2,0.8-2.9,1.4c-0.2,0.1-0.4,0.2-0.6,0.4
		c-0.7,0.4-1.3,0.8-1.8,1.3c-0.3,0.3-0.6,0.6-0.9,0.9c-0.7,0.8-1.4,1.7-1.8,2.7c-0.4,0.8-0.6,1.8-0.6,2.7c0,0.2,0,0.4,0,0.5
		c0,1.5,0.4,2.8,1.1,4.1c0.5,0.8,1.1,1.6,1.9,2.2c0.4,0.4,0.9,0.7,1.4,1.1c0.8,0.5,1.6,0.9,2.4,1.2c0.8,0.3,1.6,0.6,2.5,0.8
		c0.1,0,0.3,0.1,0.4,0.1c1.1,0.3,2.2,0.5,3.3,0.6c1.1,0.1,2.2,0.2,3.4,0.2c0.2,0,0.3,0,0.5,0c2.5,0,4.9-0.3,7.1-0.8
		c2.2-0.6,4.1-1.4,5.7-2.4c0.9-0.6,1.7-1.2,2.4-1.9c0.5-0.5,1-1.1,1.4-1.8C360.9,79.4,361.4,77.8,361.4,76.1z M343,50.8
		c1,0,2-0.1,3-0.2c0.9-0.1,1.8-0.4,2.7-0.7c0.9-0.3,1.8-0.8,2.6-1.3c0.6-0.4,1.1-0.8,1.6-1.3c1.1-1.1,2-2.4,2.6-4
		c0.4-1.1,0.7-2.2,0.8-3.4c0.1-0.6,0.1-1.1,0.1-1.7c0-1.1-0.1-2.1-0.3-3.2c-0.1-0.7-0.3-1.3-0.6-2c-0.6-1.6-1.5-2.9-2.6-4
		c-0.9-0.9-2-1.6-3.2-2.2c-0.3-0.1-0.6-0.3-1-0.4c-1-0.4-2-0.6-3.1-0.7c-0.8-0.1-1.7-0.2-2.5-0.2c-2.1,0-4,0.3-5.7,0.9
		c-0.9,0.3-1.9,0.8-2.7,1.3c-0.5,0.4-1.1,0.8-1.5,1.2c-1.1,1.1-2,2.4-2.6,4c-0.6,1.5-0.9,3.3-0.9,5.1c0,1,0.1,2.1,0.3,3.1
		c0.1,0.7,0.3,1.4,0.6,2c0.6,1.5,1.5,2.8,2.6,4c0.9,0.8,1.9,1.5,3,2.1c0.4,0.2,0.8,0.4,1.2,0.5c1,0.4,2.1,0.6,3.2,0.8
		C341.3,50.7,342.1,50.8,343,50.8z M85,5.8c0,0.6-0.1,1.2-0.4,1.7s-0.6,1-1,1.4c-0.4,0.4-0.9,0.7-1.4,1c-0.5,0.2-1.1,0.3-1.7,0.3
		s-1.2-0.1-1.7-0.3c-0.5-0.2-1-0.6-1.4-1C77,8.5,76.7,8,76.5,7.5s-0.3-1.1-0.3-1.7s0.1-1.2,0.3-1.7c0.2-0.5,0.5-0.9,0.9-1.3
		c0,0,0.1-0.1,0.1-0.1c0.4-0.4,0.9-0.7,1.4-1c0.5-0.2,1.1-0.4,1.7-0.4s1.2,0.1,1.7,0.4s1,0.5,1.4,1C84,3.1,84.3,3.5,84.6,4
		c0,0,0,0.1,0.1,0.1C84.9,4.7,85,5.2,85,5.8z M257,5.8c0,0.6-0.1,1.2-0.4,1.7s-0.6,1-1,1.4c-0.4,0.4-0.9,0.7-1.4,1
		c-0.5,0.2-1.1,0.3-1.7,0.3s-1.2-0.1-1.7-0.3c-0.5-0.2-1-0.6-1.4-1c-0.4-0.4-0.7-0.9-0.9-1.4c-0.2-0.5-0.3-1.1-0.3-1.7
		c0-0.6,0.1-1.2,0.3-1.7c0.2-0.5,0.5-0.9,0.9-1.3c0,0,0.1-0.1,0.1-0.1c0.4-0.4,0.9-0.7,1.4-1c0.5-0.2,1.1-0.4,1.7-0.4
		s1.2,0.1,1.7,0.4c0.5,0.2,1,0.5,1.4,1c0.4,0.4,0.7,0.8,0.9,1.3c0,0,0,0.1,0.1,0.1C256.8,4.7,257,5.2,257,5.8z"/>
</g>
</svg>
