<svg width="396.901" height="90.8" viewBox="0 0 396.901 90.8" xmlns="http://www.w3.org/2000/svg"><g id="svgGroup" stroke-linecap="round" fill-rule="evenodd" font-size="9pt" stroke="#000" stroke-width="0.25mm" fill="black" style="stroke:#000;stroke-width:0.25mm;fill:black"><path d="M 58.7 64.65 L 58.7 42.9 L 43 42.9 A 1.052 1.052 0 0 1 42.778 42.879 Q 42.456 42.809 42.409 42.51 A 0.702 0.702 0 0 1 42.4 42.4 L 42.4 41.9 L 59.8 41.9 L 59.8 65.1 Q 57.2 66.85 54.425 68.275 Q 51.65 69.7 48.475 70.7 A 41.954 41.954 0 0 1 44.071 71.819 A 50.549 50.549 0 0 1 41.575 72.25 Q 37.85 72.8 33.4 72.8 A 39.866 39.866 0 0 1 25.35 72.017 A 32.828 32.828 0 0 1 19.7 70.325 Q 13.55 67.85 9.175 63.2 A 31.155 31.155 0 0 1 3.545 54.729 A 37.232 37.232 0 0 1 2.4 51.925 A 39.614 39.614 0 0 1 0.367 43.229 A 51.178 51.178 0 0 1 0 37 A 48.817 48.817 0 0 1 0.678 28.693 A 38.444 38.444 0 0 1 2.4 22.125 A 32.71 32.71 0 0 1 6.573 14.114 A 29.233 29.233 0 0 1 9.3 10.85 A 30.209 30.209 0 0 1 19.779 3.858 A 34.686 34.686 0 0 1 20.175 3.7 Q 26.55 1.2 34.5 1.2 A 55.77 55.77 0 0 1 38.572 1.342 A 43.073 43.073 0 0 1 41.65 1.675 A 32.596 32.596 0 0 1 45.849 2.563 A 27.808 27.808 0 0 1 47.675 3.15 Q 50.45 4.15 52.9 5.65 A 32.234 32.234 0 0 1 56.519 8.238 A 37.196 37.196 0 0 1 57.7 9.25 L 57.55 9.5 A 0.832 0.832 0 0 1 57.421 9.632 Q 57.322 9.71 57.213 9.737 A 0.478 0.478 0 0 1 57.1 9.75 Q 56.7 9.75 55.4 8.575 Q 54.226 7.514 51.971 6.248 A 40.62 40.62 0 0 0 51.475 5.975 A 23.598 23.598 0 0 0 49.292 4.941 Q 47.294 4.109 44.7 3.375 Q 41.474 2.462 37.1 2.258 A 56.025 56.025 0 0 0 34.5 2.2 A 41.994 41.994 0 0 0 26.622 2.91 A 33.897 33.897 0 0 0 20.75 4.575 Q 14.6 6.95 10.25 11.45 A 29.728 29.728 0 0 0 4.502 20.05 A 35.371 35.371 0 0 0 3.55 22.4 Q 1.2 28.85 1.2 37 A 49.118 49.118 0 0 0 1.782 44.725 A 37.73 37.73 0 0 0 3.525 51.6 A 33.022 33.022 0 0 0 7.17 58.88 A 28.568 28.568 0 0 0 10.1 62.55 Q 14.35 67.05 20.275 69.425 A 33.205 33.205 0 0 0 29.451 71.612 A 40.63 40.63 0 0 0 33.4 71.8 A 67.238 67.238 0 0 0 37.494 71.681 A 49.52 49.52 0 0 0 41.175 71.325 A 42.946 42.946 0 0 0 45.631 70.484 A 36.406 36.406 0 0 0 47.65 69.925 Q 50.65 69 53.325 67.675 Q 56 66.35 58.7 64.65 Z M 192.8 72 L 191.6 72 L 191.6 0 L 192.8 0 L 192.8 33.2 Q 194.5 30.7 196.625 28.675 Q 198.75 26.65 201.2 25.2 Q 203.65 23.75 206.35 22.975 Q 209.05 22.2 211.9 22.2 Q 220.05 22.2 224.075 27.05 A 16.176 16.176 0 0 1 227.078 32.81 Q 228.1 36.216 228.1 40.6 L 228.1 72 L 226.9 72 L 226.9 40.6 A 32.015 32.015 0 0 0 226.689 36.833 A 23.551 23.551 0 0 0 226 33.275 A 16.031 16.031 0 0 0 224.724 30.039 A 13.107 13.107 0 0 0 223.225 27.8 Q 221.35 25.55 218.525 24.375 A 14.751 14.751 0 0 0 215.249 23.458 Q 213.78 23.216 212.122 23.201 A 24.306 24.306 0 0 0 211.9 23.2 Q 206.15 23.2 201.3 26.275 Q 196.45 29.35 192.8 34.75 L 192.8 72 Z M 345.8 25.4 L 357.7 25.4 L 357.7 25.6 A 0.604 0.604 0 0 1 357.502 26.055 A 0.819 0.819 0 0 1 357.45 26.1 A 0.917 0.917 0 0 1 357.162 26.259 A 0.837 0.837 0 0 1 356.9 26.3 L 347.1 26.5 Q 349.35 28.6 350.525 31.45 A 15.587 15.587 0 0 1 351.597 35.779 A 19.259 19.259 0 0 1 351.7 37.8 A 18.063 18.063 0 0 1 351.292 41.711 A 15.156 15.156 0 0 1 350.525 44.175 Q 349.35 47.05 347.175 49.1 A 14.839 14.839 0 0 1 342.882 51.901 A 17.435 17.435 0 0 1 341.95 52.275 A 18.026 18.026 0 0 1 337.845 53.242 A 23.053 23.053 0 0 1 335.1 53.4 A 22.066 22.066 0 0 1 330.77 52.994 A 16.914 16.914 0 0 1 326.5 51.55 Q 325.25 52.25 324.2 53.15 A 12.568 12.568 0 0 0 322.898 54.435 A 10.838 10.838 0 0 0 322.4 55.05 A 9.569 9.569 0 0 0 321.523 56.449 A 8.3 8.3 0 0 0 321.225 57.1 A 6.142 6.142 0 0 0 320.908 58.117 A 4.689 4.689 0 0 0 320.8 59.1 A 6.438 6.438 0 0 0 320.975 60.647 A 4.256 4.256 0 0 0 322.35 62.925 Q 323.9 64.25 326.45 64.9 A 25.686 25.686 0 0 0 329.175 65.431 Q 330.58 65.631 332.149 65.719 A 41.167 41.167 0 0 0 332.25 65.725 Q 335.5 65.9 338.9 66.05 Q 342.3 66.2 345.55 66.55 A 24.881 24.881 0 0 1 348.625 67.069 A 19.131 19.131 0 0 1 351.35 67.925 A 11.104 11.104 0 0 1 353.778 69.254 A 9.225 9.225 0 0 1 355.45 70.825 A 6.402 6.402 0 0 1 356.679 73.262 Q 356.935 74.204 356.987 75.32 A 12.479 12.479 0 0 1 357 75.9 Q 357 78.85 355.475 81.525 A 14.813 14.813 0 0 1 352.637 85.06 A 18.131 18.131 0 0 1 351.175 86.275 A 19.881 19.881 0 0 1 347.475 88.439 A 25.935 25.935 0 0 1 344.475 89.575 A 26.57 26.57 0 0 1 339.488 90.598 A 34.272 34.272 0 0 1 335.7 90.8 Q 330.75 90.8 326.95 89.75 Q 323.28 88.736 320.73 87.022 A 15.527 15.527 0 0 1 320.55 86.9 A 13.994 13.994 0 0 1 318.208 84.884 A 11.239 11.239 0 0 1 316.625 82.7 Q 315.3 80.3 315.3 77.6 Q 315.3 73.4 318.15 70.375 A 16.183 16.183 0 0 1 321.989 67.407 Q 323.722 66.426 325.834 65.706 A 26.785 26.785 0 0 1 325.85 65.7 A 12.918 12.918 0 0 1 323.761 64.995 Q 322.59 64.478 321.7 63.754 A 7.645 7.645 0 0 1 321.375 63.475 A 4.927 4.927 0 0 1 319.917 60.977 Q 319.7 60.124 319.7 59.1 Q 319.7 58.1 320.125 57 A 9.837 9.837 0 0 1 320.904 55.432 A 11.614 11.614 0 0 1 321.3 54.825 Q 322.05 53.75 323.125 52.775 Q 324.2 51.8 325.55 51.05 Q 322.15 49.05 320.325 45.65 A 15.259 15.259 0 0 1 318.679 40.479 A 19.535 19.535 0 0 1 318.5 37.8 A 18.016 18.016 0 0 1 318.944 33.736 A 15.423 15.423 0 0 1 319.65 31.475 Q 320.8 28.6 322.975 26.55 A 15.105 15.105 0 0 1 327.178 23.772 A 17.771 17.771 0 0 1 328.2 23.35 A 17.577 17.577 0 0 1 332.104 22.39 A 22.802 22.802 0 0 1 335.1 22.2 A 21.545 21.545 0 0 1 338.569 22.468 A 17.289 17.289 0 0 1 341.025 23.05 A 17.599 17.599 0 0 1 344.644 24.649 A 15.701 15.701 0 0 1 345.8 25.4 Z M 267.8 72 L 266.6 72 L 266.6 23 L 266.9 23 Q 267.6 23 267.6 23.8 L 267.75 33.25 Q 269.45 30.75 271.575 28.7 Q 273.7 26.65 276.15 25.2 Q 278.6 23.75 281.3 22.975 Q 284 22.2 286.9 22.2 Q 295.05 22.2 299.075 27.05 A 16.176 16.176 0 0 1 302.078 32.81 Q 303.1 36.216 303.1 40.6 L 303.1 72 L 301.9 72 L 301.9 40.6 A 32.015 32.015 0 0 0 301.689 36.833 A 23.551 23.551 0 0 0 301 33.275 A 16.031 16.031 0 0 0 299.724 30.039 A 13.107 13.107 0 0 0 298.225 27.8 Q 296.35 25.55 293.525 24.375 A 14.751 14.751 0 0 0 290.249 23.458 Q 288.78 23.216 287.122 23.201 A 24.306 24.306 0 0 0 286.9 23.2 Q 281.15 23.2 276.3 26.275 Q 271.45 29.35 267.8 34.75 L 267.8 72 Z M 126.8 2 L 180.8 2 L 180.8 3.1 L 154.5 3.1 L 154.5 72 L 153.3 72 L 153.3 3.1 L 126.8 3.1 L 126.8 2 Z M 395.4 27 L 395.2 27.3 A 0.819 0.819 0 0 1 395.066 27.458 A 0.533 0.533 0 0 1 394.7 27.6 A 0.716 0.716 0 0 1 394.461 27.552 Q 394.113 27.427 393.582 26.974 A 7.731 7.731 0 0 1 393.525 26.925 Q 392.75 26.25 391.275 25.425 A 14.573 14.573 0 0 0 389.949 24.775 Q 389.285 24.488 388.514 24.218 A 28.712 28.712 0 0 0 387.55 23.9 A 13.951 13.951 0 0 0 385.549 23.447 Q 383.96 23.2 382 23.2 A 17.606 17.606 0 0 0 378.504 23.535 A 14.713 14.713 0 0 0 376.325 24.15 A 15.661 15.661 0 0 0 373.523 25.498 A 13.084 13.084 0 0 0 371.9 26.675 A 11.612 11.612 0 0 0 369.33 29.733 A 11.015 11.015 0 0 0 369.025 30.3 Q 368 32.35 368 34.6 A 9.287 9.287 0 0 0 368.207 36.609 A 6.638 6.638 0 0 0 369.25 39.025 A 10.486 10.486 0 0 0 371.897 41.619 A 12.382 12.382 0 0 0 372.525 42.025 A 20.543 20.543 0 0 0 375.281 43.41 A 25.625 25.625 0 0 0 377.15 44.1 Q 379.75 44.95 382.45 45.775 Q 385.15 46.6 387.75 47.525 A 21.034 21.034 0 0 1 390.776 48.867 A 17.772 17.772 0 0 1 392.375 49.85 Q 394.4 51.25 395.65 53.275 Q 396.848 55.215 396.898 58.051 A 14.11 14.11 0 0 1 396.9 58.3 Q 396.9 61.3 395.825 63.95 Q 394.75 66.6 392.7 68.55 Q 390.65 70.5 387.675 71.65 A 16.795 16.795 0 0 1 383.852 72.61 A 22.086 22.086 0 0 1 380.9 72.8 Q 378.25 72.8 376.175 72.375 A 21.207 21.207 0 0 1 373.348 71.596 A 18.466 18.466 0 0 1 372.325 71.2 Q 370.55 70.45 369.025 69.35 A 35.6 35.6 0 0 1 366.388 67.244 A 39.646 39.646 0 0 1 366 66.9 L 366.3 66.6 A 4.156 4.156 0 0 1 366.389 66.514 Q 366.482 66.427 366.55 66.375 Q 366.635 66.312 366.826 66.302 A 1.445 1.445 0 0 1 366.9 66.3 A 0.628 0.628 0 0 1 367.131 66.353 Q 367.525 66.512 368.2 67.15 Q 368.805 67.721 369.737 68.382 A 27.494 27.494 0 0 0 370.725 69.05 A 14.551 14.551 0 0 0 372.279 69.915 Q 373.095 70.311 374.053 70.672 A 27.49 27.49 0 0 0 374.825 70.95 A 14.317 14.317 0 0 0 377.16 71.524 Q 378.32 71.714 379.653 71.773 A 28.034 28.034 0 0 0 380.9 71.8 A 21.098 21.098 0 0 0 384.094 71.569 A 15.673 15.673 0 0 0 387.275 70.75 A 14.738 14.738 0 0 0 390.192 69.277 A 12.368 12.368 0 0 0 391.95 67.875 Q 393.85 66.05 394.825 63.625 A 13.723 13.723 0 0 0 395.792 58.922 A 15.789 15.789 0 0 0 395.8 58.4 A 10.71 10.71 0 0 0 395.61 56.322 Q 395.359 55.053 394.777 54.041 A 6.485 6.485 0 0 0 394.55 53.675 A 10.941 10.941 0 0 0 391.587 50.707 A 12.624 12.624 0 0 0 391.275 50.5 A 19.446 19.446 0 0 0 388.37 48.977 A 23.806 23.806 0 0 0 386.65 48.325 Q 384.05 47.45 381.35 46.65 Q 378.65 45.85 376.05 44.95 A 22.553 22.553 0 0 1 373.095 43.695 A 18.63 18.63 0 0 1 371.425 42.725 Q 369.4 41.4 368.15 39.45 A 7.626 7.626 0 0 1 367.131 36.917 Q 366.915 35.913 366.901 34.755 A 13.279 13.279 0 0 1 366.9 34.6 Q 366.9 32.15 368 29.925 A 12.437 12.437 0 0 1 370.854 26.193 A 14.258 14.258 0 0 1 371.1 25.975 A 14.696 14.696 0 0 1 374.456 23.819 A 17.765 17.765 0 0 1 375.875 23.225 A 16.551 16.551 0 0 1 379.963 22.3 A 20.265 20.265 0 0 1 382 22.2 A 25.977 25.977 0 0 1 385.614 22.439 Q 387.602 22.719 389.3 23.325 Q 392.45 24.45 395.4 27 Z M 102.3 62.7 L 102.3 26.1 L 94.2 26.1 A 1.452 1.452 0 0 1 93.954 26.081 Q 93.5 26.002 93.5 25.6 L 93.5 25.3 L 102.3 25.1 L 102.7 5.4 Q 102.7 5.15 102.825 4.925 A 0.474 0.474 0 0 1 102.929 4.795 Q 103.028 4.709 103.17 4.701 A 0.531 0.531 0 0 1 103.2 4.7 L 103.5 4.7 L 103.5 25.1 L 120.2 25.1 L 120.2 26.1 L 103.5 26.1 L 103.5 62.7 Q 103.5 65.2 104.125 66.925 Q 104.75 68.65 105.85 69.725 Q 106.95 70.8 108.4 71.3 A 9.305 9.305 0 0 0 111.091 71.792 A 10.651 10.651 0 0 0 111.5 71.8 A 11.495 11.495 0 0 0 113.296 71.667 A 8.318 8.318 0 0 0 115.175 71.15 Q 116.584 70.569 117.613 69.907 A 10.535 10.535 0 0 0 117.85 69.75 A 18.937 18.937 0 0 0 118.616 69.202 Q 118.983 68.923 119.286 68.66 A 9.054 9.054 0 0 0 119.625 68.35 A 6.607 6.607 0 0 1 119.884 68.113 Q 120.279 67.771 120.51 67.712 A 0.366 0.366 0 0 1 120.6 67.7 Q 120.8 67.7 121 67.9 L 121.2 68.1 A 10.302 10.302 0 0 1 119.908 69.516 A 12.131 12.131 0 0 1 119.375 69.975 Q 118.3 70.85 117.025 71.475 Q 115.75 72.1 114.325 72.45 Q 112.9 72.8 111.5 72.8 A 12.713 12.713 0 0 1 108.763 72.522 Q 106.358 71.992 104.75 70.45 Q 102.964 68.737 102.48 65.403 A 18.867 18.867 0 0 1 102.3 62.7 Z M 355.9 75.9 A 9.25 9.25 0 0 0 355.724 74.037 Q 355.408 72.5 354.525 71.425 A 8.448 8.448 0 0 0 352.087 69.414 A 10.738 10.738 0 0 0 350.85 68.825 A 18.238 18.238 0 0 0 348.057 67.966 A 24.018 24.018 0 0 0 345.6 67.55 A 94.632 94.632 0 0 0 341.035 67.123 A 106.008 106.008 0 0 0 339.45 67.025 Q 336.25 66.85 333.1 66.7 Q 329.95 66.55 327.3 66.05 Q 324.95 66.9 322.95 68 A 15.69 15.69 0 0 0 320.675 69.512 A 13.235 13.235 0 0 0 319.525 70.55 A 11.232 11.232 0 0 0 317.403 73.532 A 10.679 10.679 0 0 0 317.3 73.75 A 8.936 8.936 0 0 0 316.522 76.92 A 10.597 10.597 0 0 0 316.5 77.6 Q 316.5 80.15 317.85 82.375 A 11.671 11.671 0 0 0 320.238 85.163 A 14.629 14.629 0 0 0 321.675 86.25 A 17.431 17.431 0 0 0 324.608 87.806 A 24.073 24.073 0 0 0 327.7 88.85 A 27.197 27.197 0 0 0 331.852 89.605 A 36.364 36.364 0 0 0 335.7 89.8 Q 339.65 89.8 343.3 88.775 A 25.156 25.156 0 0 0 347.335 87.276 A 20.864 20.864 0 0 0 349.75 85.925 Q 352.55 84.1 354.225 81.55 Q 355.9 79 355.9 75.9 Z M 78.9 23 L 80.1 23 L 80.1 72 L 78.9 72 L 78.9 23 Z M 246.1 23 L 247.3 23 L 247.3 72 L 246.1 72 L 246.1 23 Z M 335.1 52.4 A 21.688 21.688 0 0 0 338.5 52.146 A 16.375 16.375 0 0 0 341.6 51.35 A 14.295 14.295 0 0 0 344.821 49.696 A 12.487 12.487 0 0 0 346.425 48.375 Q 348.4 46.45 349.45 43.75 Q 350.5 41.05 350.5 37.8 A 17.095 17.095 0 0 0 350.101 34.043 A 14.535 14.535 0 0 0 349.425 31.85 Q 348.35 29.15 346.35 27.225 A 13.37 13.37 0 0 0 342.539 24.675 A 15.835 15.835 0 0 0 341.5 24.25 A 16.86 16.86 0 0 0 337.664 23.348 A 21.559 21.559 0 0 0 335.1 23.2 A 20.665 20.665 0 0 0 331.526 23.496 A 16.316 16.316 0 0 0 328.7 24.25 A 14.432 14.432 0 0 0 325.326 26.005 A 12.773 12.773 0 0 0 323.85 27.225 Q 321.85 29.15 320.775 31.85 A 15.252 15.252 0 0 0 319.772 36.161 A 18.453 18.453 0 0 0 319.7 37.8 A 17.095 17.095 0 0 0 320.1 41.557 A 14.535 14.535 0 0 0 320.775 43.75 Q 321.85 46.45 323.85 48.375 A 13.37 13.37 0 0 0 327.662 50.925 A 15.835 15.835 0 0 0 328.7 51.35 A 16.86 16.86 0 0 0 332.536 52.252 A 21.559 21.559 0 0 0 335.1 52.4 Z M 81.745 6.331 A 2.392 2.392 0 0 0 82.3 4.8 A 2.601 2.601 0 0 0 82.064 3.693 A 2.827 2.827 0 0 0 81.425 2.825 Q 80.55 2 79.5 2 A 2.804 2.804 0 0 0 78.636 2.131 A 2.755 2.755 0 0 0 77.525 2.825 Q 76.7 3.65 76.7 4.8 A 2.439 2.439 0 0 0 76.976 5.939 A 2.993 2.993 0 0 0 77.525 6.675 Q 78.35 7.5 79.5 7.5 A 2.543 2.543 0 0 0 80.686 7.209 A 3.283 3.283 0 0 0 81.425 6.675 A 3.368 3.368 0 0 0 81.745 6.331 Z M 248.945 6.331 A 2.392 2.392 0 0 0 249.5 4.8 A 2.601 2.601 0 0 0 249.264 3.693 A 2.827 2.827 0 0 0 248.625 2.825 Q 247.75 2 246.7 2 A 2.804 2.804 0 0 0 245.836 2.131 A 2.755 2.755 0 0 0 244.725 2.825 Q 243.9 3.65 243.9 4.8 A 2.439 2.439 0 0 0 244.176 5.939 A 2.993 2.993 0 0 0 244.725 6.675 Q 245.55 7.5 246.7 7.5 A 2.543 2.543 0 0 0 247.886 7.209 A 3.283 3.283 0 0 0 248.625 6.675 A 3.368 3.368 0 0 0 248.945 6.331 Z" vector-effect="non-scaling-stroke"/></g></svg>